<?xml version="1.0" encoding="iso-8859-1"?>
<!-- Generator: Adobe Illustrator 19.0.0, SVG Export Plug-In . SVG Version: 6.00 Build 0)  -->
<svg xmlns="http://www.w3.org/2000/svg" xmlns:xlink="http://www.w3.org/1999/xlink" version="1.1" id="Layer_1" x="0px" y="0px" viewBox="0 0 502 502" style="enable-background:new 0 0 502 502;" xml:space="preserve" width="512px" height="512px">
<g>
	<g>
		<g>
			<path d="M251,0C152.492,0,72.35,80.142,72.35,178.65c0,95.435,163.74,310.329,170.711,319.431     c1.892,2.47,4.827,3.919,7.939,3.919s6.047-1.449,7.939-3.919c6.971-9.102,170.711-223.996,170.711-319.431     C429.65,80.142,349.508,0,251,0z M251,475.332c-14.172-19.112-45.222-61.927-75.95-110.544     c-54.103-85.601-82.7-149.967-82.7-186.138C92.35,91.17,163.52,20,251,20s158.65,71.17,158.65,158.65     c0,36.171-28.597,100.536-82.7,186.138C296.222,413.405,265.172,456.22,251,475.332z" fill="#0072bc"/>
			<path d="M251,73.847c-57.788,0-104.803,47.014-104.803,104.803S193.211,283.454,251,283.454s104.803-47.015,104.803-104.804     C355.803,120.862,308.788,73.847,251,73.847z M251,263.454c-46.761,0-84.803-38.043-84.803-84.804S204.239,93.847,251,93.847     s84.803,38.042,84.803,84.803S297.761,263.454,251,263.454z" fill="#0072bc"/>
			<path d="M162.002,90.081c2.391,0,4.789-0.852,6.703-2.58c22.592-20.412,51.819-31.654,82.296-31.654     c17.037,0,33.525,3.42,49.005,10.165c5.061,2.206,10.956-0.11,13.162-5.173s-0.11-10.956-5.173-13.162     c-18.016-7.85-37.192-11.83-56.995-11.83c-35.44,0-69.429,13.074-95.705,36.814c-4.098,3.702-4.419,10.026-0.716,14.124     C156.553,88.97,159.273,90.081,162.002,90.081z" fill="#0072bc"/>
			<path d="M137.992,108.146c-4.891-2.566-10.936-0.685-13.503,4.205c-10.658,20.3-16.292,43.226-16.292,66.299     c0,5.523,4.477,10,10,10s10-4.477,10-10c0-19.847,4.841-39.557,14-57.001C144.764,116.759,142.882,110.714,137.992,108.146z" fill="#0072bc"/>
		</g>
	</g>
</g>
<g>
</g>
<g>
</g>
<g>
</g>
<g>
</g>
<g>
</g>
<g>
</g>
<g>
</g>
<g>
</g>
<g>
</g>
<g>
</g>
<g>
</g>
<g>
</g>
<g>
</g>
<g>
</g>
<g>
</g>
</svg>
